<?xml version="1.0" encoding="utf-8"?>
<!-- Generator: Adobe Illustrator 22.1.0, SVG Export Plug-In . SVG Version: 6.00 Build 0)  -->
<svg version="1.1" id="Layer_1" xmlns="http://www.w3.org/2000/svg" xmlns:xlink="http://www.w3.org/1999/xlink" x="0px" y="0px"
	 viewBox="0 0 558.4 168.5" style="enable-background:new 0 0 558.4 168.5;" xml:space="preserve">
<style type="text/css">
	.st0{fill:#FFFFFF;}
</style>
<path class="st0" d="M209.9,54.6l-0.9,0.1c-3.4,0.1-4.4,3-4.4,5.8v50.8c0,2.5-0.1,4.6-0.1,6.7c0,3.8,0.4,7,2.5,11.2
	c-7-1.1-18.2-2.9-22.1-10.7c-3.3,3.6-10.3,6.9-13.8,10.7c-8-6.9-29-0.3-29-19.8V65.6c8.2-2.6,16.3-6.9,24.2-11
	c4.8-2.5,12.6-4.1,17.8-4.1c8.8,0,17.2,2.1,25.7,3.6V54.6z M170.1,56.7c-4.4,0-6.2,2.5-6.2,7v46.1c0,7.3,0.6,12.8,6.9,15.1l12.8-9.7
	c-0.6-1.3-0.9-3.3-0.9-4.6v-37c0-2.1-0.1-8-2.6-8.5l21-3.5v-0.4C191.6,60.6,179.4,56.7,170.1,56.7z"/>
<path class="st0" d="M257.5,55H249v56.6c0,5.5,0.4,13.4,8.9,13.4v1.6h-5.6c-16.6,0-25-0.8-25-17.7V55h-8.9l1.3-3.5
	c2.6,0,4.8-0.3,6.4-0.6c3.9-2.1,15.1-9,20.7-20.5c0,0.1,2.4,0.1,2.4,0.1v21h9.5L257.5,55z"/>
<path class="st0" d="M309.2,78.8c-2.3-0.4-6.3-7.7-8.9-7.7c-0.5,0-0.9,0.3-1.3,0.9c-4.8,8.2-6.9,11-6.9,26v28
	c-3.5-0.3-7.4-0.5-11.2-0.5c-3.8,0-7.5,0.3-10.7,0.5V67c0-3.8-2-5.5-6.2-6.5l25.1-10.4c2.5,0.5,3,3.5,3,6.3c0,1-0.1,2-0.1,2.8
	l-0.8,15.3c0,1.1-1,3.6-1.1,4.3c3.6-7.2,7.7-15.1,15.2-29.9c5.1,2.6,11.6,9.5,11.6,14.9v0.6C316.5,69.5,311.3,77.7,309.2,78.8z"/>
<path class="st0" d="M336.3,125.5c-3.8,0-7.5,0.3-10.7,0.5V67c0-3.8-2.4-5.6-6.2-6.5l25.1-10.4c2.6,0.5,2.9,3.6,2.9,6.4V126
	C344,125.8,340.1,125.5,336.3,125.5z"/>
<path class="st0" d="M419.3,125.5c-3.9,0-7.8,0.3-10.9,0.5l-0.1-58.6c0-4.8-1.1-9.2-6.5-9.2c-3.9,0-10.9,3.6-13.7,5.4V126
	c-3.5-0.3-7.4-0.5-11.2-0.5s-7.5,0.3-10.7,0.5V67c0-3.8-2-5.5-6.2-6.5l25.1-10.4c2.6,0.5,2.9,4.1,2.9,6.9v2.4
	c5.5-2.4,15.1-8.9,23.5-8.9c11.7,0,18.7,6.4,18.7,18.3V126C427.1,125.8,423.2,125.5,419.3,125.5z"/>
<path class="st0" d="M514.9,54.6l-0.9,0.1c-3.4,0.1-4.4,3-4.4,5.8v50.8c0,2.5-0.1,4.6-0.1,6.7c0,3.8,0.4,7,2.5,11.2
	c-7-1.1-18.2-2.9-22.1-10.7c-3.3,3.6-10.3,6.9-13.8,10.7c-8-6.9-29-0.3-29-19.8V65.6c8.2-2.6,16.3-6.9,24.2-11
	c4.8-2.5,12.6-4.1,17.8-4.1c8.8,0,17.2,2.1,25.7,3.6V54.6z M475.1,56.7c-4.4,0-6.2,2.5-6.2,7v46.1c0,7.3,0.6,12.8,6.9,15.1l12.8-9.7
	c-0.6-1.3-0.9-3.3-0.9-4.6v-37c0-2.1-0.1-8-2.6-8.5l21-3.5v-0.4C496.5,60.6,484.3,56.7,475.1,56.7z"/>
<rect x="326.7" y="30" transform="matrix(0.7071 -0.7071 0.7071 0.7071 70.9091 248.4346)" class="st0" width="17.2" height="17.2"/>
<rect x="50.5" y="75.2" transform="matrix(0.7071 -0.7071 0.7071 0.7071 -41.9766 66.3453)" class="st0" width="17.2" height="17.2"/>
<rect x="50.5" y="98.9" transform="matrix(0.7071 -0.7071 0.7071 0.7071 -58.7231 73.2819)" class="st0" width="17.2" height="17.2"/>
<path class="st0" d="M105.7,74.1c-2.6-3.4-4.4-3.6-6-3.6c-0.9,0-1.6,0-2.5-0.1c2.3-2,28.7-33.1,32-37c-2.4,0.1-3.5,0.2-5.4,0.2
	c-3,0-4.8,0-6.9-0.1c0,0-0.9,1.1-1.7,2.2C109.7,43,86.7,73,81.4,76.6V27.1L59.1,50.3l0,92.5l22.3-17V82.2c0.6-0.9,0.8-1.6,2.8-2.4
	c0.4-0.1,0.8-0.3,1.1-0.3c3,0,6.3,5,9.9,15.6c9.3,26.6,18.5,41.6,38.8,41.6h0.5c3.3,0,6.8-1.1,10-1.8
	C122.7,126.9,116.8,88,105.7,74.1z"/>
</svg>
